<svg xmlns="http://www.w3.org/2000/svg" width="700" height="220" viewBox="0 0 700 220">
  <rect width="100%" height="100%" fill="#ffffff"/>
  <g font-family="Arial" font-size="14" fill="#111">
    <rect x="30" y="40" width="170" height="60" fill="#e8f0fe" stroke="#333"/>
    <text x="50" y="75">Dongle Source</text>
    <rect x="240" y="40" width="170" height="60" fill="#e6f7ea" stroke="#333"/>
    <text x="270" y="75">Buffer Chunks</text>
    <rect x="450" y="40" width="170" height="60" fill="#e9f0ff" stroke="#333"/>
    <text x="480" y="75">FFT Processor</text>
    <rect x="510" y="120" width="120" height="40" fill="#fff2cc" stroke="#333"/>
    <text x="520" y="145">WebSocket MSG_FFT</text>
  </g>
  <g font-family="Arial" font-size="14" fill="#111">
    <rect x="30" y="120" width="170" height="60" fill="#fff" stroke="#333"/>
    <text x="50" y="150">Buffer Chunks</text>
    <rect x="220" y="120" width="180" height="60" fill="#ffd7e8" stroke="#333"/>
    <text x="260" y="150">IQ Extractor</text>
    <rect x="440" y="120" width="170" height="60" fill="#e8f5ff" stroke="#333"/>
    <text x="470" y="150">Client Demodulator</text>
  </g>
  <defs>
    <marker id="arrow" markerWidth="8" markerHeight="6" refX="8" refY="3" orient="auto">
      <path d="M0,0 L8,3 L0,6 z" fill="#333" />
    </marker>
  </defs>
  <line x1="200" y1="70" x2="240" y2="70" stroke="#333" marker-end="url(#arrow)"/>
  <line x1="410" y1="70" x2="450" y2="70" stroke="#333" marker-end="url(#arrow)"/>
</svg>
